<svg width="40" height="40" viewBox="0 0 40 40" fill="none" xmlns="http://www.w3.org/2000/svg">
<rect width="40" height="40" rx="10" fill="#AD4343" fill-opacity="0.1"/>
<path d="M26.994 12.3642C25.6468 12.4174 24.3042 12.5037 22.9568 12.6158L22.9556 12.6075L22.6244 11.5599C22.3948 10.8178 22.0544 9.70417 20.1231 9.97343L17.9607 10.2749C16.0376 10.543 16.0079 11.6578 15.9875 12.4768L15.9614 13.5574C15.2008 13.714 14.4401 13.8705 13.6829 14.0518L12.0222 14.4516C11.6801 14.5329 11.4751 14.8728 11.5553 15.2066C11.6355 15.5404 11.9671 15.7466 12.3092 15.6653L13.9699 15.2654C18.2349 14.2333 22.6157 13.7908 27.0511 13.6184C27.0758 13.6149 27.0923 13.6126 27.1171 13.6092C27.4307 13.5654 27.6697 13.2881 27.6579 12.9616C27.6355 12.6198 27.3453 12.3489 26.994 12.3642Z" fill="#A46868"/>
<path d="M26.0264 16.7833C25.8264 16.5749 25.5514 16.4583 25.2681 16.4583H14.7348C14.4514 16.4583 14.1681 16.5749 13.9764 16.7833C13.7848 16.9916 13.6764 17.2749 13.6931 17.5666L14.2098 26.1166C14.3014 27.3833 14.4181 28.9666 17.3264 28.9666H22.6764C25.5848 28.9666 25.7014 27.3916 25.7931 26.1166L26.3098 17.5749C26.3264 17.2749 26.2181 16.9916 26.0264 16.7833ZM21.3848 24.7916H18.6098C18.2681 24.7916 17.9848 24.5083 17.9848 24.1666C17.9848 23.8249 18.2681 23.5416 18.6098 23.5416H21.3848C21.7264 23.5416 22.0098 23.8249 22.0098 24.1666C22.0098 24.5083 21.7264 24.7916 21.3848 24.7916ZM22.0848 21.4583H17.9181C17.5764 21.4583 17.2931 21.1749 17.2931 20.8333C17.2931 20.4916 17.5764 20.2083 17.9181 20.2083H22.0848C22.4264 20.2083 22.7098 20.4916 22.7098 20.8333C22.7098 21.1749 22.4264 21.4583 22.0848 21.4583Z" fill="#A46868"/>
</svg>
