<svg width="40" height="40" viewBox="0 0 40 40" fill="none" xmlns="http://www.w3.org/2000/svg">
<rect width="40" height="40" rx="10" fill="#724C8A" fill-opacity="0.1"/>
<path d="M27.084 18.4916H24.6757C22.7007 18.4916 21.0923 16.8833 21.0923 14.9083V12.5C21.0923 12.0416 20.7173 11.6666 20.259 11.6666H16.7257C14.159 11.6666 12.084 13.3333 12.084 16.3083V23.6916C12.084 26.6666 14.159 28.3333 16.7257 28.3333H23.2757C25.8423 28.3333 27.9173 26.6666 27.9173 23.6916V19.325C27.9173 18.8666 27.5423 18.4916 27.084 18.4916ZM19.609 21.275C19.484 21.4 19.3257 21.4583 19.1673 21.4583C19.009 21.4583 18.8507 21.4 18.7257 21.275L18.1257 20.675V24.1666C18.1257 24.5083 17.8423 24.7916 17.5007 24.7916C17.159 24.7916 16.8757 24.5083 16.8757 24.1666V20.675L16.2757 21.275C16.034 21.5166 15.634 21.5166 15.3923 21.275C15.1507 21.0333 15.1507 20.6333 15.3923 20.3916L17.059 18.725C17.1173 18.675 17.1757 18.6333 17.2423 18.6C17.259 18.5916 17.284 18.5833 17.3007 18.575C17.3507 18.5583 17.4007 18.55 17.459 18.5416C17.484 18.5416 17.5007 18.5416 17.5257 18.5416C17.5923 18.5416 17.659 18.5583 17.7257 18.5833C17.734 18.5833 17.734 18.5833 17.7423 18.5833C17.809 18.6083 17.8757 18.6583 17.9257 18.7083C17.934 18.7166 17.9423 18.7166 17.9423 18.725L19.609 20.3916C19.8507 20.6333 19.8507 21.0333 19.609 21.275Z" fill="#724C8A"/>
<path d="M24.526 17.3417C25.3177 17.35 26.4177 17.35 27.3594 17.35C27.8344 17.35 28.0844 16.7917 27.751 16.4584C26.551 15.25 24.401 13.075 23.1677 11.8417C22.826 11.5 22.2344 11.7334 22.2344 12.2084V15.1167C22.2344 16.3334 23.2677 17.3417 24.526 17.3417Z" fill="#724C8A"/>
</svg>
