<svg width="16" height="16" viewBox="0 0 16 16" fill="none" xmlns="http://www.w3.org/2000/svg">
<path d="M5.99935 9.99992C5.8675 9.99992 5.7386 10.039 5.62897 10.1123C5.51934 10.1855 5.43389 10.2896 5.38343 10.4115C5.33297 10.5333 5.31977 10.6673 5.34549 10.7966C5.37122 10.926 5.43471 11.0448 5.52794 11.138C5.62118 11.2312 5.73997 11.2947 5.86929 11.3204C5.99861 11.3462 6.13265 11.333 6.25447 11.2825C6.37629 11.232 6.48041 11.1466 6.55366 11.037C6.62692 10.9273 6.66602 10.7984 6.66602 10.6666C6.66602 10.4898 6.59578 10.3202 6.47075 10.1952C6.34573 10.0702 6.17616 9.99992 5.99935 9.99992ZM1.33268 9.33325C1.15587 9.33325 0.986302 9.40349 0.861278 9.52851C0.736253 9.65354 0.666016 9.82311 0.666016 9.99992V11.3333C0.666016 11.5101 0.736253 11.6796 0.861278 11.8047C0.986302 11.9297 1.15587 11.9999 1.33268 11.9999C1.50949 11.9999 1.67906 11.9297 1.80409 11.8047C1.92911 11.6796 1.99935 11.5101 1.99935 11.3333V9.99992C1.99935 9.82311 1.92911 9.65354 1.80409 9.52851C1.67906 9.40349 1.50949 9.33325 1.33268 9.33325ZM14.666 9.33325C14.4892 9.33325 14.3196 9.40349 14.1946 9.52851C14.0696 9.65354 13.9993 9.82311 13.9993 9.99992V11.3333C13.9993 11.5101 14.0696 11.6796 14.1946 11.8047C14.3196 11.9297 14.4892 11.9999 14.666 11.9999C14.8428 11.9999 15.0124 11.9297 15.1374 11.8047C15.2624 11.6796 15.3327 11.5101 15.3327 11.3333V9.99992C15.3327 9.82311 15.2624 9.65354 15.1374 9.52851C15.0124 9.40349 14.8428 9.33325 14.666 9.33325ZM11.3327 4.66658H8.66602V3.81325C8.86753 3.69691 9.0351 3.52986 9.15205 3.3287C9.269 3.12754 9.33128 2.89927 9.33268 2.66659C9.33268 2.31296 9.19221 1.97382 8.94216 1.72378C8.69211 1.47373 8.35297 1.33325 7.99935 1.33325C7.64573 1.33325 7.30659 1.47373 7.05654 1.72378C6.80649 1.97382 6.66602 2.31296 6.66602 2.66659C6.66742 2.89927 6.72969 3.12754 6.84665 3.3287C6.9636 3.52986 7.13117 3.69691 7.33268 3.81325V4.66658H4.66602C4.13558 4.66658 3.62687 4.8773 3.2518 5.25237C2.87673 5.62744 2.66602 6.13615 2.66602 6.66658V12.6666C2.66602 13.197 2.87673 13.7057 3.2518 14.0808C3.62687 14.4559 4.13558 14.6666 4.66602 14.6666H11.3327C11.8631 14.6666 12.3718 14.4559 12.7469 14.0808C13.122 13.7057 13.3327 13.197 13.3327 12.6666V6.66658C13.3327 6.13615 13.122 5.62744 12.7469 5.25237C12.3718 4.8773 11.8631 4.66658 11.3327 4.66658ZM9.14602 5.99992L8.81268 7.33325H7.18602L6.85268 5.99992H9.14602ZM11.9993 12.6666C11.9993 12.8434 11.9291 13.013 11.8041 13.138C11.6791 13.263 11.5095 13.3333 11.3327 13.3333H4.66602C4.4892 13.3333 4.31964 13.263 4.19461 13.138C4.06959 13.013 3.99935 12.8434 3.99935 12.6666V6.66658C3.99935 6.48977 4.06959 6.3202 4.19461 6.19518C4.31964 6.07016 4.4892 5.99992 4.66602 5.99992H5.47935L5.99935 8.15992C6.03585 8.30784 6.12191 8.43879 6.24321 8.53098C6.36451 8.62316 6.51373 8.67102 6.66602 8.66658H9.33268C9.48497 8.67102 9.63419 8.62316 9.75549 8.53098C9.87679 8.43879 9.96285 8.30784 9.99935 8.15992L10.5193 5.99992H11.3327C11.5095 5.99992 11.6791 6.07016 11.8041 6.19518C11.9291 6.3202 11.9993 6.48977 11.9993 6.66658V12.6666ZM9.99935 9.99992C9.86749 9.99992 9.7386 10.039 9.62897 10.1123C9.51934 10.1855 9.43389 10.2896 9.38343 10.4115C9.33297 10.5333 9.31977 10.6673 9.34549 10.7966C9.37122 10.926 9.43471 11.0448 9.52794 11.138C9.62118 11.2312 9.73997 11.2947 9.86929 11.3204C9.99861 11.3462 10.1327 11.333 10.2545 11.2825C10.3763 11.232 10.4804 11.1466 10.5537 11.037C10.6269 10.9273 10.666 10.7984 10.666 10.6666C10.666 10.4898 10.5958 10.3202 10.4708 10.1952C10.3457 10.0702 10.1762 9.99992 9.99935 9.99992Z" fill="#1C1C22"/>
</svg>
