<svg width="16" height="16" viewBox="0 0 16 16" fill="none" xmlns="http://www.w3.org/2000/svg">
<path d="M15.1663 11.6666C15.1663 11.94 14.9397 12.1666 14.6663 12.1666H9.99967V12.3333C9.99967 13.3333 9.39967 13.6666 8.66634 13.6666H4.66634C3.93301 13.6666 3.33301 13.3333 3.33301 12.3333V12.1666H1.33301C1.05967 12.1666 0.833008 11.94 0.833008 11.6666C0.833008 11.3933 1.05967 11.1666 1.33301 11.1666H3.33301V11C3.33301 9.99996 3.93301 9.66663 4.66634 9.66663H8.66634C9.39967 9.66663 9.99967 9.99996 9.99967 11V11.1666H14.6663C14.9397 11.1666 15.1663 11.3933 15.1663 11.6666Z" fill="#1C1C22"/>
<path d="M15.1663 4.33337C15.1663 4.60671 14.9397 4.83337 14.6663 4.83337H12.6663V5.00004C12.6663 6.00004 12.0663 6.33337 11.333 6.33337H7.33301C6.59967 6.33337 5.99967 6.00004 5.99967 5.00004V4.83337H1.33301C1.05967 4.83337 0.833008 4.60671 0.833008 4.33337C0.833008 4.06004 1.05967 3.83337 1.33301 3.83337H5.99967V3.66671C5.99967 2.66671 6.59967 2.33337 7.33301 2.33337H11.333C12.0663 2.33337 12.6663 2.66671 12.6663 3.66671V3.83337H14.6663C14.9397 3.83337 15.1663 4.06004 15.1663 4.33337Z" fill="#1C1C22"/>
</svg>
