<svg width="16" height="16" viewBox="0 0 16 16" fill="none" xmlns="http://www.w3.org/2000/svg">
<path fill-rule="evenodd" clip-rule="evenodd" d="M9.50065 1.66667C9.50065 1.57462 9.42603 1.5 9.33398 1.5H4.66732C3.6548 1.5 2.83398 2.32081 2.83398 3.33333V12.6667C2.83398 13.6792 3.6548 14.5 4.66732 14.5H11.334C12.3465 14.5 13.1673 13.6792 13.1673 12.6667V6.09804C13.1673 6.00599 13.0927 5.93137 13.0007 5.93137H10.0007C9.72451 5.93137 9.50065 5.70752 9.50065 5.43137V1.66667ZM8.66732 7.66667C8.66732 7.11438 9.11503 6.66667 9.66732 6.66667C10.2196 6.66667 10.6673 7.11438 10.6673 7.66667C10.6673 8.21895 10.2196 8.66667 9.66732 8.66667C9.11503 8.66667 8.66732 8.21895 8.66732 7.66667ZM7.42465 8.735C7.33328 8.58881 7.17305 8.5 7.00065 8.5C6.82826 8.5 6.66802 8.58881 6.57665 8.735L4.90999 11.4017C4.81365 11.5558 4.80855 11.7501 4.89666 11.9091C4.98478 12.068 5.15222 12.1667 5.33398 12.1667H10.6673C10.8567 12.1667 11.0298 12.0597 11.1145 11.8903C11.1992 11.7209 11.181 11.5182 11.0673 11.3667L10.0673 10.0333C9.97289 9.90743 9.8247 9.83333 9.66732 9.83333C9.50994 9.83333 9.36175 9.90743 9.26732 10.0333L8.70484 10.7833L7.42465 8.735Z" fill="#1C1C22"/>
<path d="M10.5007 1.88276C10.5007 1.75976 10.6291 1.68166 10.7248 1.75892C10.8054 1.824 10.8778 1.90024 10.9397 1.98637L12.9484 4.78497C12.9942 4.84868 12.9446 4.93137 12.8662 4.93137H10.6673C10.5753 4.93137 10.5007 4.85675 10.5007 4.76471V1.88276Z" fill="#1C1C22"/>
</svg>
