<svg width="16" height="16" viewBox="0 0 16 16" fill="none" xmlns="http://www.w3.org/2000/svg">
<path d="M11.3327 14.6667H4.66602C4.39268 14.6667 4.16602 14.4401 4.16602 14.1667C4.16602 13.8934 4.39268 13.6667 4.66602 13.6667H11.3327C11.606 13.6667 11.8327 13.8934 11.8327 14.1667C11.8327 14.4401 11.606 14.6667 11.3327 14.6667Z" fill="#1C1C22"/>
<path d="M13.5668 3.68011L10.9001 5.58677C10.5468 5.84011 10.0401 5.68677 9.88681 5.28011L8.62681 1.92011C8.41348 1.34011 7.59348 1.34011 7.38015 1.92011L6.11348 5.27344C5.96015 5.68677 5.46015 5.84011 5.10681 5.58011L2.44015 3.67344C1.90681 3.30011 1.20015 3.82677 1.42015 4.44677L4.19348 12.2134C4.28681 12.4801 4.54015 12.6534 4.82015 12.6534H11.1735C11.4535 12.6534 11.7068 12.4734 11.8001 12.2134L14.5735 4.44677C14.8001 3.82677 14.0935 3.30011 13.5668 3.68011ZM9.66681 9.83344H6.33348C6.06015 9.83344 5.83348 9.60677 5.83348 9.33344C5.83348 9.06011 6.06015 8.83344 6.33348 8.83344H9.66681C9.94015 8.83344 10.1668 9.06011 10.1668 9.33344C10.1668 9.60677 9.94015 9.83344 9.66681 9.83344Z" fill="#1C1C22"/>
</svg>
