<svg width="16" height="16" viewBox="0 0 16 16" fill="none" xmlns="http://www.w3.org/2000/svg">
<path d="M11.6 12.8334H4.4C3.4 12.8334 3 12.4067 3 11.3467V10.6534C3 9.59335 3.4 9.16669 4.4 9.16669H11.6C12.6 9.16669 13 9.59335 13 10.6534V11.3467C13 12.4067 12.6 12.8334 11.6 12.8334Z" fill="#1C1C22"/>
<path d="M8.5 12.8333V14.1666C8.5 14.44 8.27333 14.6666 8 14.6666C7.72667 14.6666 7.5 14.44 7.5 14.1666V12.8333H8.5Z" fill="#1C1C22"/>
<path d="M8.5 7.16669H7.5V9.16669H8.5V7.16669Z" fill="#1C1C22"/>
<path d="M8.5 1.83331V3.49998H7.5V1.83331C7.5 1.55998 7.72667 1.33331 8 1.33331C8.27333 1.33331 8.5 1.55998 8.5 1.83331Z" fill="#1C1C22"/>
<path d="M10.2673 7.16667H5.73398C4.73398 7.16667 4.33398 6.74 4.33398 5.68V4.98667C4.33398 3.92667 4.73398 3.5 5.73398 3.5H10.2673C11.2673 3.5 11.6673 3.92667 11.6673 4.98667V5.68C11.6673 6.74 11.2673 7.16667 10.2673 7.16667Z" fill="#1C1C22"/>
</svg>
