<svg width="16" height="16" viewBox="0 0 16 16" fill="none" xmlns="http://www.w3.org/2000/svg">
<path d="M8.57617 1.99748C8.31925 1.55471 7.67985 1.55471 7.42293 1.99748L5.61356 5.11569C5.48664 5.33441 5.26728 5.48367 5.01724 5.52144L1.62636 6.03359C1.05684 6.11961 0.857066 6.83868 1.3006 7.20615L3.82666 9.29896C4.06049 9.49268 4.17044 9.79826 4.11364 10.0966L3.45286 13.5666C3.3484 14.1152 3.92426 14.5414 4.41836 14.2812L7.6113 12.6C7.85432 12.4721 8.14478 12.4721 8.3878 12.6L11.5807 14.2812C12.0748 14.5414 12.6507 14.1152 12.5462 13.5666L11.8855 10.0966C11.8287 9.79826 11.9386 9.49268 12.1724 9.29896L14.6985 7.20615C15.142 6.83868 14.9423 6.11961 14.3727 6.03359L10.9819 5.52144C10.7318 5.48367 10.5125 5.33441 10.3855 5.11569L8.57617 1.99748Z" fill="#1C1C22"/>
</svg>
