<svg width="16" height="16" viewBox="0 0 16 16" fill="none" xmlns="http://www.w3.org/2000/svg">
<path d="M13.666 11.1667H12.166V9.66666C12.166 9.39332 11.9393 9.16666 11.666 9.16666C11.3927 9.16666 11.166 9.39332 11.166 9.66666V11.1667H9.66602C9.39268 11.1667 9.16602 11.3933 9.16602 11.6667C9.16602 11.94 9.39268 12.1667 9.66602 12.1667H11.166V13.6667C11.166 13.94 11.3927 14.1667 11.666 14.1667C11.9393 14.1667 12.166 13.94 12.166 13.6667V12.1667H13.666C13.9393 12.1667 14.166 11.94 14.166 11.6667C14.166 11.3933 13.9393 11.1667 13.666 11.1667Z" fill="#1C1C22"/>
<path d="M14.6667 5.68001V2.65334C14.6667 1.71334 14.24 1.33334 13.18 1.33334H10.4867C9.42667 1.33334 9 1.71334 9 2.65334V5.67334C9 6.62001 9.42667 6.99334 10.4867 6.99334H13.18C14.24 7.00001 14.6667 6.62001 14.6667 5.68001Z" fill="#1C1C22"/>
<path d="M7.00065 5.68001V2.65334C7.00065 1.71334 6.57398 1.33334 5.51398 1.33334H2.82065C1.76065 1.33334 1.33398 1.71334 1.33398 2.65334V5.67334C1.33398 6.62001 1.76065 6.99334 2.82065 6.99334H5.51398C6.57398 7.00001 7.00065 6.62001 7.00065 5.68001Z" fill="#1C1C22"/>
<path d="M7.00065 13.18V10.4867C7.00065 9.42667 6.57398 9 5.51398 9H2.82065C1.76065 9 1.33398 9.42667 1.33398 10.4867V13.18C1.33398 14.24 1.76065 14.6667 2.82065 14.6667H5.51398C6.57398 14.6667 7.00065 14.24 7.00065 13.18Z" fill="#1C1C22"/>
</svg>
