<svg width="16" height="16" viewBox="0 0 16 16" fill="none" xmlns="http://www.w3.org/2000/svg">
<path d="M13.3336 12.8399H7.2869C6.9869 12.8399 6.74023 12.5932 6.74023 12.2932C6.74023 11.9932 6.9869 11.7466 7.2869 11.7466H13.3336C13.6336 11.7466 13.8802 11.9932 13.8802 12.2932C13.8802 12.5999 13.6336 12.8399 13.3336 12.8399Z" fill="#1C1C22"/>
<path d="M13.3336 8.64656H7.2869C6.9869 8.64656 6.74023 8.39989 6.74023 8.09989C6.74023 7.79989 6.9869 7.55322 7.2869 7.55322H13.3336C13.6336 7.55322 13.8802 7.79989 13.8802 8.09989C13.8802 8.39989 13.6336 8.64656 13.3336 8.64656Z" fill="#1C1C22"/>
<path d="M13.3336 4.4466H7.2869C6.9869 4.4466 6.74023 4.19994 6.74023 3.89994C6.74023 3.59994 6.9869 3.35327 7.2869 3.35327H13.3336C13.6336 3.35327 13.8802 3.59994 13.8802 3.89994C13.8802 4.19994 13.6336 4.4466 13.3336 4.4466Z" fill="#1C1C22"/>
<path d="M3.27247 5.35344C3.12581 5.35344 2.98581 5.29344 2.88581 5.19344L2.27914 4.58678C2.06581 4.37344 2.06581 4.02678 2.27914 3.81344C2.49247 3.60011 2.83914 3.60011 3.05247 3.81344L3.27247 4.03344L4.69914 2.60678C4.91247 2.39344 5.25914 2.39344 5.47247 2.60678C5.68581 2.82011 5.68581 3.16678 5.47247 3.38011L3.65914 5.19344C3.55247 5.29344 3.41914 5.35344 3.27247 5.35344Z" fill="#1C1C22"/>
<path d="M3.27247 9.55339C3.13247 9.55339 2.99247 9.50006 2.88581 9.39339L2.27914 8.78673C2.06581 8.5734 2.06581 8.22673 2.27914 8.0134C2.49247 7.80006 2.83914 7.80006 3.05247 8.0134L3.27247 8.2334L4.69914 6.80673C4.91247 6.5934 5.25914 6.5934 5.47247 6.80673C5.68581 7.02006 5.68581 7.36673 5.47247 7.58006L3.65914 9.39339C3.55247 9.50006 3.41247 9.55339 3.27247 9.55339Z" fill="#1C1C22"/>
<path d="M3.27247 13.5534C3.13247 13.5534 2.99247 13.5001 2.88581 13.3934L2.27914 12.7867C2.06581 12.5734 2.06581 12.2267 2.27914 12.0134C2.49247 11.8001 2.83914 11.8001 3.05247 12.0134L3.27247 12.2334L4.69914 10.8067C4.91247 10.5934 5.25914 10.5934 5.47247 10.8067C5.68581 11.0201 5.68581 11.3667 5.47247 11.5801L3.65914 13.3934C3.55247 13.5001 3.41247 13.5534 3.27247 13.5534Z" fill="#1C1C22"/>
</svg>
