<svg width="16" height="16" viewBox="0 0 16 16" fill="none" xmlns="http://www.w3.org/2000/svg">
<path d="M10.5338 1.47332C10.2604 1.19999 9.78711 1.38665 9.78711 1.76665V4.09332C9.78711 5.06665 10.6138 5.87332 11.6204 5.87332C12.2538 5.87999 13.1338 5.87998 13.8871 5.87998C14.2671 5.87998 14.4671 5.43332 14.2004 5.16665C13.2404 4.19999 11.5204 2.45999 10.5338 1.47332Z" fill="#1C1C22"/>
<path d="M13.667 6.79334H11.7403C10.1603 6.79334 8.87366 5.50668 8.87366 3.92668V2.00001C8.87366 1.63334 8.57366 1.33334 8.20699 1.33334H5.38033C3.32699 1.33334 1.66699 2.66668 1.66699 5.04668V10.9533C1.66699 13.3333 3.32699 14.6667 5.38033 14.6667H10.6203C12.6737 14.6667 14.3337 13.3333 14.3337 10.9533V7.46001C14.3337 7.09334 14.0337 6.79334 13.667 6.79334ZM7.66699 11.8333H5.00033C4.72699 11.8333 4.50033 11.6067 4.50033 11.3333C4.50033 11.06 4.72699 10.8333 5.00033 10.8333H7.66699C7.94033 10.8333 8.16699 11.06 8.16699 11.3333C8.16699 11.6067 7.94033 11.8333 7.66699 11.8333ZM9.00033 9.16668H5.00033C4.72699 9.16668 4.50033 8.94001 4.50033 8.66668C4.50033 8.39334 4.72699 8.16668 5.00033 8.16668H9.00033C9.27366 8.16668 9.50033 8.39334 9.50033 8.66668C9.50033 8.94001 9.27366 9.16668 9.00033 9.16668Z" fill="#1C1C22"/>
</svg>
