<svg width="16" height="16" viewBox="0 0 16 16" fill="none" xmlns="http://www.w3.org/2000/svg">
<path d="M7.99967 1.5C7.72353 1.5 7.49967 1.72386 7.49967 2V4.66667C7.49967 4.66658 7.49967 4.66676 7.49967 4.66667V9.50634C7.00553 9.08658 6.36551 8.83333 5.66634 8.83333C4.10153 8.83333 2.83301 10.1019 2.83301 11.6667C2.83301 13.2315 4.10153 14.5 5.66634 14.5C7.23115 14.5 8.49967 13.2315 8.49967 11.6667C8.49967 11.5875 8.49642 11.509 8.49005 11.4315C8.49636 11.3997 8.49968 11.3669 8.49968 11.3333L8.49967 5.16667H11.9997C13.0122 5.16667 13.833 4.34586 13.833 3.33333C13.833 2.32081 13.0122 1.5 11.9997 1.5H7.99967Z" fill="#1C1C22"/>
<path d="M14.653 9.76663C14.1063 9.09329 13.273 8.66663 12.333 8.66663C11.6263 8.66663 10.973 8.91329 10.4597 9.32663C9.76634 9.87329 9.33301 10.72 9.33301 11.6666C9.33301 12.2266 9.49301 12.76 9.76634 13.2133C9.94634 13.5133 10.173 13.7733 10.4397 13.9866H10.4463C10.9597 14.4133 11.6197 14.6666 12.333 14.6666C13.093 14.6666 13.7797 14.3866 14.3063 13.92C14.5397 13.72 14.7397 13.48 14.8997 13.2133C15.173 12.76 15.333 12.2266 15.333 11.6666C15.333 10.9466 15.0797 10.28 14.653 9.76663ZM13.8397 11.2933L12.2397 12.7733C12.1463 12.86 12.0197 12.9066 11.8997 12.9066C11.773 12.9066 11.6463 12.86 11.5463 12.76L10.8063 12.02C10.613 11.8266 10.613 11.5066 10.8063 11.3133C10.9997 11.12 11.3197 11.12 11.513 11.3133L11.913 11.7133L13.1597 10.56C13.3597 10.3733 13.6797 10.3866 13.8663 10.5866C14.0597 10.7933 14.0463 11.1066 13.8397 11.2933Z" fill="#1C1C22"/>
</svg>
