<svg width="60" height="60" viewBox="0 0 60 60" fill="none" xmlns="http://www.w3.org/2000/svg">
<rect width="60" height="60" rx="20" fill="#E0DFDC"/>
<path d="M33.5028 40.3549C34.293 39.684 34.9242 38.846 35.3507 37.9015L33.5168 36.6797H29.826L27.9922 37.9015C28.4186 38.8461 29.0498 39.6841 29.8401 40.3549L29.826 40.371V44.4114H33.5168V40.3717L33.5028 40.3549Z" fill="#FFC2A6"/>
<path d="M30.3895 40.3549C31.1797 39.684 31.8109 38.846 32.2374 37.9015L30.4036 36.6797H26.7127L24.8789 37.9015C25.3054 38.8461 25.9365 39.6841 26.7268 40.3549L26.7127 40.371V44.4114H30.4036V40.3717L30.3895 40.3549Z" fill="#FFC2A6"/>
<path d="M42.0682 27.3118H44.4111C44.2352 26.08 43.7195 24.9216 42.922 23.9663C42.1244 23.011 41.0765 22.2966 39.8956 21.9031L38.5527 21.4559L40.8964 20.8706L42.0682 20.2852L41.2968 19.6705C39.8983 18.5522 38.1606 17.9431 36.3696 17.9433H36.2076C37.0555 17.5227 37.7035 16.997 38.5513 16.5729C36.9166 15.2642 33.0673 14.8759 29.9999 17.9419C26.9143 14.8576 22.976 15.2964 21.4444 16.5189C22.2922 16.9395 22.9402 17.5178 23.7881 17.9419H23.6275C21.8365 17.9417 20.0988 18.5508 18.7003 19.6691L17.9289 20.2838L20.2726 20.8692L21.4444 21.4545L20.1014 21.9017C18.9206 22.2952 17.8727 23.0096 17.0751 23.9649C16.2776 24.9202 15.7619 26.0786 15.5859 27.3104H17.9296L17.0726 28.167C16.1211 29.1183 15.5866 30.4085 15.5866 31.7538V31.995H17.9303L17.6224 32.4057C17.1693 33.0093 16.8567 33.7064 16.7073 34.4462C16.558 35.1859 16.5757 35.9496 16.7592 36.6816L17.931 36.0963L19.1028 35.511C18.9193 36.243 18.9016 37.0068 19.051 37.7465C19.2003 38.4863 19.513 39.1833 19.9661 39.7869L20.274 40.1977L23.1373 37.7261C23.2843 37.9441 23.5119 38.095 23.77 38.1458C24.0282 38.1965 24.2959 38.1429 24.5146 37.9967L26.4838 36.6845C26.4839 36.9112 26.5456 37.1338 26.6623 37.3283C26.779 37.5228 26.9462 37.682 27.1463 37.7891C27.3463 37.8961 27.5717 37.9469 27.7983 37.936C28.0249 37.9252 28.2444 37.8531 28.4333 37.7275L29.3492 37.1177C29.5415 36.9893 29.7676 36.9208 29.9989 36.9208C30.2302 36.9208 30.4563 36.9893 30.6486 37.1177L31.5645 37.7275C31.7534 37.8531 31.9728 37.9252 32.1995 37.936C32.4261 37.9469 32.6515 37.8961 32.8515 37.7891C33.0515 37.682 33.2188 37.5228 33.3355 37.3283C33.4521 37.1338 33.5139 36.9112 33.514 36.6845L35.4832 37.9967C35.702 38.1427 35.9696 38.1962 36.2277 38.1455C36.4858 38.0948 36.7133 37.944 36.8605 37.7261L39.7217 40.1942L40.0296 39.7834C40.4827 39.1798 40.7954 38.4827 40.9447 37.743C41.0941 37.0033 41.0763 36.2395 40.8929 35.5075L42.0647 36.0928L43.2365 36.6781C43.42 35.9461 43.4377 35.1824 43.2884 34.4427C43.139 33.7029 42.8264 33.0058 42.3732 32.4022L42.0654 31.9915H44.4083V31.7503C44.4083 30.4051 43.8738 29.1149 42.9223 28.1635L42.0682 27.3118Z" fill="white"/>
<path d="M27.4603 28.4844C26.9978 28.6772 26.6026 29.0026 26.3247 29.4194C26.0467 29.8363 25.8984 30.3261 25.8984 30.827C25.8984 31.328 26.0467 31.8177 26.3247 32.2346C26.6026 32.6515 26.9978 32.9768 27.4603 33.1697C27.9229 32.9768 28.318 32.6515 28.596 32.2346C28.8739 31.8177 29.0222 31.328 29.0222 30.827C29.0222 30.3261 28.8739 29.8363 28.596 29.4194C28.318 29.0026 27.9229 28.6772 27.4603 28.4844Z" fill="#D4E9FF"/>
<path d="M34.4889 28.4844C33.9858 28.2748 33.4286 28.2326 32.8996 28.364C32.3707 28.4953 31.8981 28.7933 31.5517 29.2139C31.2052 29.6345 31.0034 30.1553 30.9759 30.6994C30.9484 31.2435 31.0968 31.7819 31.3991 32.2352C31.7015 32.6885 32.1417 33.0325 32.6547 33.2165C33.1677 33.4004 33.7263 33.4144 34.2479 33.2566C34.7696 33.0987 35.2265 32.7772 35.5513 32.3397C35.876 31.9022 36.0513 31.3718 36.0513 30.827C36.0512 30.326 35.9028 29.8362 35.6248 29.4193C35.3468 29.0025 34.9515 28.6771 34.4889 28.4844Z" fill="#D4E9FF"/>
<path d="M37.5849 31.9279C37.3605 31.4744 37.2267 30.9815 37.1907 30.4769C37.1671 30.1672 37.176 29.8559 37.2174 29.5481C37.2624 29.2099 37.2792 28.8685 37.2679 28.5275C37.216 27.108 36.6719 25.7508 35.7289 24.6882C34.7859 23.6256 33.5026 22.9238 32.0988 22.7031C30.6949 22.9239 29.4115 23.6257 28.4684 24.6884C27.5254 25.7512 26.9814 27.1086 26.9297 28.5282C27.26 28.5914 27.5729 28.725 27.8471 28.9197C28.1212 29.1144 28.3503 29.3658 28.5188 29.6568C28.5419 29.6967 28.5629 29.7374 28.5833 29.778C28.7741 30.1577 28.8579 30.5821 28.8258 31.0058C28.7937 31.4295 28.6468 31.8364 28.401 32.1831L28.6029 33.1932C28.6666 33.5182 28.8413 33.811 29.0972 34.0216C29.353 34.2321 29.6741 34.3471 30.0055 34.3471C30.3368 34.3471 30.6579 34.2321 30.9138 34.0216C31.1696 33.811 31.3443 33.5182 31.408 33.1932L31.61 32.1831C31.3018 31.748 31.1513 31.221 31.1833 30.6889C31.2152 30.1569 31.4277 29.6516 31.7857 29.2566C32.1437 28.8615 32.6258 28.6003 33.1524 28.5161C33.6789 28.4319 34.2185 28.5296 34.6819 28.7933C35.1454 29.0569 35.505 29.4706 35.7015 29.9662C35.898 30.4617 35.9195 31.0094 35.7625 31.5188C35.6056 32.0282 35.2795 32.4689 34.8382 32.7681C34.3969 33.0673 33.8667 33.2071 33.3351 33.1644V33.1833C33.9493 33.2289 34.5446 33.4158 35.0746 33.7292C35.6046 34.0427 36.055 34.4743 36.3906 34.9904L37.2265 34.1549C37.4865 33.895 37.6665 33.5661 37.7454 33.2072C37.7454 33.196 37.7504 33.184 37.7525 33.1728C37.8377 32.7508 37.7786 32.3124 37.5849 31.9279Z" fill="#FFC2A6"/>
<path d="M31.4844 26.7266H28.5117C28.3563 26.7266 28.2073 26.7883 28.0974 26.8981C27.9875 27.0079 27.9258 27.1569 27.9258 27.3122C27.9258 27.4675 27.9875 27.6165 28.0974 27.7263C28.2073 27.8362 28.3563 27.8979 28.5117 27.8979H31.4816C31.637 27.8979 31.786 27.8362 31.8959 27.7263C32.0058 27.6165 32.0675 27.4675 32.0675 27.3122C32.0675 27.1569 32.0058 27.0079 31.8959 26.8981C31.786 26.7883 31.637 26.7266 31.4816 26.7266H31.4844Z" fill="#3A4155"/>
<path d="M44.413 27.9012C44.4969 27.9013 44.5799 27.8833 44.6562 27.8485C44.7326 27.8137 44.8006 27.7629 44.8556 27.6995C44.9106 27.6362 44.9513 27.5618 44.975 27.4813C44.9987 27.4008 45.0048 27.3162 44.993 27.2332C44.815 25.9884 44.3178 24.8108 43.5496 23.815C42.7814 22.8191 41.7685 22.039 40.6093 21.5504C41.4347 21.3366 40.7391 21.5785 42.3316 20.813C42.4197 20.7691 42.4953 20.7038 42.5513 20.623C42.6074 20.5422 42.6423 20.4486 42.6526 20.3508C42.663 20.253 42.6485 20.1541 42.6105 20.0634C42.5726 19.9727 42.5124 19.893 42.4354 19.8316L41.6696 19.2134C40.6153 18.3741 39.3765 17.7975 38.0553 17.5311C38.3014 17.379 38.5462 17.2346 38.8162 17.1007C38.9042 17.0568 38.9798 16.9914 39.0359 16.9106C39.092 16.8298 39.1268 16.7362 39.1371 16.6384C39.1475 16.5406 39.133 16.4418 39.095 16.3511C39.0571 16.2603 38.9969 16.1806 38.9199 16.1193C37.7156 15.2608 36.2375 14.8751 34.767 15.0356C32.9886 15.1904 31.3116 15.93 29.9983 17.1385C26.8223 14.3234 22.8369 14.6627 21.0816 16.066C21.0047 16.1274 20.9445 16.2071 20.9065 16.2978C20.8686 16.3885 20.8541 16.4873 20.8644 16.5851C20.8748 16.6829 20.9096 16.7766 20.9657 16.8574C21.0218 16.9381 21.0974 17.0035 21.1854 17.0474C21.4632 17.1897 21.7325 17.3482 21.9919 17.5219C20.6551 17.7847 19.401 18.3648 18.3354 19.2134L17.564 19.8281C17.4778 19.8963 17.4125 19.9873 17.3757 20.0908C17.3388 20.1943 17.3318 20.3061 17.3555 20.4134C17.3792 20.5207 17.4327 20.6191 17.5097 20.6975C17.5868 20.7758 17.6843 20.8309 17.7912 20.8565L19.86 21.3731C18.5901 21.8085 17.4652 22.5861 16.6094 23.62C15.7536 24.6539 15.2001 25.9041 15.01 27.2325C14.9985 27.3157 15.0051 27.4004 15.0293 27.4808C15.0535 27.5613 15.0948 27.6356 15.1502 27.6986C15.2055 27.7613 15.2737 27.8112 15.35 27.8451C15.4264 27.8789 15.5092 27.8959 15.5927 27.8949H16.524C15.496 29.0096 14.9496 30.4847 15.0037 31.9998C15.0037 32.0764 15.019 32.1522 15.0485 32.2228C15.0781 32.2935 15.1213 32.3576 15.1757 32.4115C15.2301 32.4654 15.2947 32.508 15.3657 32.5368C15.4366 32.5656 15.5126 32.5801 15.5892 32.5795H16.8052C16.0497 33.8595 15.8297 35.3856 16.193 36.8267C16.2142 36.9118 16.2543 36.9911 16.3103 37.0586C16.3662 37.1262 16.4367 37.1803 16.5164 37.217C16.5961 37.2537 16.6831 37.272 16.7708 37.2705C16.8586 37.2691 16.9449 37.248 17.0233 37.2087L18.3698 36.5358C18.3306 38.0062 18.8434 39.4381 19.8074 40.5495C19.8556 40.6138 19.9166 40.6674 19.9864 40.7072C20.0563 40.7469 20.1336 40.7718 20.2135 40.7804C20.2934 40.7891 20.3742 40.7811 20.4509 40.7572C20.5276 40.7333 20.5986 40.6939 20.6594 40.6414L23.1286 38.5104C23.3147 38.6271 23.5231 38.7036 23.7405 38.7349C23.958 38.7661 24.1795 38.7515 24.3909 38.692C24.7869 39.4086 25.2968 40.0561 25.9008 40.6091V44.4147C25.9008 44.5699 25.9625 44.7188 26.0723 44.8286C26.1821 44.9383 26.331 45 26.4863 45H33.5166C33.5935 45 33.6697 44.9849 33.7407 44.9554C33.8118 44.926 33.8763 44.8829 33.9307 44.8286C33.9851 44.7742 34.0282 44.7097 34.0576 44.6387C34.087 44.5677 34.1022 44.4916 34.1022 44.4147V40.6091C34.7062 40.0557 35.2162 39.4077 35.612 38.6906C35.8236 38.7487 36.0449 38.7626 36.2621 38.7313C36.4793 38.7001 36.6877 38.6244 36.8743 38.509L39.3442 40.6414C39.4051 40.694 39.4761 40.7335 39.5529 40.7575C39.6297 40.7815 39.7106 40.7894 39.7906 40.7808C39.8706 40.7722 39.9479 40.7472 40.0178 40.7074C40.0878 40.6676 40.1487 40.6139 40.197 40.5495C41.16 39.4376 41.6727 38.0061 41.6346 36.5358L42.981 37.2087C43.0595 37.248 43.1458 37.2691 43.2336 37.2705C43.3213 37.272 43.4082 37.2537 43.488 37.217C43.5677 37.1803 43.6381 37.1262 43.6941 37.0586C43.7501 36.9911 43.7901 36.9118 43.8113 36.8267C44.1744 35.3877 43.9544 33.8635 43.1991 32.5858H44.4144C44.5697 32.5858 44.7187 32.5241 44.8285 32.4144C44.9383 32.3046 45 32.1557 45 32.0005V31.7608C44.9952 30.3306 44.4528 28.9545 43.4803 27.9054H44.4144L44.413 27.9012ZM23.3664 29.4721C23.2635 28.6914 23.3285 27.8978 23.557 27.1443C23.7855 26.3907 24.1723 25.6946 24.6916 25.1025C25.2108 24.5103 25.8505 24.0358 26.568 23.7106C27.2854 23.3854 28.064 23.217 28.8517 23.2166H31.1505C31.9383 23.217 32.7169 23.3854 33.4343 23.7106C34.1517 24.0358 34.7914 24.5103 35.3107 25.1025C35.8299 25.6946 36.2167 26.3907 36.4453 27.1443C36.6738 27.8978 36.7388 28.6914 36.6359 29.4721C36.6172 29.6123 36.6043 29.7525 36.5973 29.8927H36.2909C36.1206 29.3869 35.8153 28.9372 35.4078 28.5923C35.0004 28.2475 34.5064 28.0206 33.9792 27.9361C33.452 27.8516 32.9118 27.9129 32.4169 28.1132C31.9221 28.3135 31.4914 28.6452 31.1716 29.0725H28.8286C28.49 28.6211 28.028 28.2771 27.4984 28.082C26.9687 27.8868 26.3939 27.8488 25.8432 27.9726C25.2925 28.0963 24.7892 28.3766 24.3941 28.7795C23.999 29.1825 23.7288 29.691 23.616 30.2439H23.4126C23.4168 29.9858 23.4013 29.7278 23.3664 29.4721ZM36.8028 33.7403L36.4381 34.1048C36.3839 34.0445 36.3283 33.9859 36.2712 33.9289C35.9735 33.6317 35.6363 33.377 35.2691 33.1718C35.6025 32.9228 35.8789 32.6057 36.08 32.2415C36.2811 31.8773 36.4022 31.4745 36.4353 31.0598H36.6773C36.7525 31.451 36.8806 31.8302 37.0581 32.187C37.1851 32.4393 37.229 32.7254 37.1837 33.0042C37.1383 33.283 37.006 33.5404 36.8056 33.7396L36.8028 33.7403ZM28.2437 30.8292C28.2437 31.1766 28.1407 31.5162 27.9476 31.8051C27.7545 32.094 27.48 32.3191 27.1589 32.4521C26.8377 32.585 26.4844 32.6198 26.1435 32.5521C25.8026 32.4843 25.4894 32.317 25.2437 32.0713C24.9979 31.8256 24.8305 31.5126 24.7627 31.1719C24.6949 30.8311 24.7297 30.4779 24.8627 30.1569C24.9957 29.836 25.221 29.5616 25.51 29.3686C25.799 29.1756 26.1388 29.0725 26.4863 29.0725C26.7171 29.0725 26.9457 29.1178 27.159 29.2061C27.3722 29.2943 27.566 29.4237 27.7292 29.5868C27.8924 29.75 28.0219 29.9437 28.1101 30.1568C28.1984 30.37 28.2438 30.5985 28.2437 30.8292ZM29.2536 33.3029C29.217 33.2324 29.1905 33.1572 29.175 33.0793L29.0186 32.3005C29.2796 31.8539 29.4166 31.3457 29.4156 30.8285C29.4154 30.6298 29.3955 30.4316 29.356 30.2369H30.647C30.6075 30.4316 30.5875 30.6298 30.5874 30.8285C30.5864 31.3457 30.7234 31.8538 30.9843 32.3005L30.8286 33.0793C30.7953 33.2511 30.7092 33.4082 30.5824 33.5288C30.4555 33.6494 30.2941 33.7275 30.1208 33.7521C29.9475 33.7767 29.7708 33.7466 29.6153 33.6661C29.4599 33.5856 29.3334 33.4586 29.2536 33.3029ZM33.3757 32.5802C33.0353 32.5528 32.7102 32.4269 32.4402 32.2178C32.1703 32.0087 31.9671 31.7256 31.8556 31.4029C31.7441 31.0803 31.729 30.7321 31.8122 30.4011C31.8955 30.07 32.0734 29.7703 32.3243 29.5387C32.5752 29.3071 32.8881 29.1536 33.2249 29.097C33.5617 29.0403 33.9077 29.083 34.2206 29.2197C34.5335 29.3564 34.7998 29.5814 34.9869 29.8669C35.174 30.1525 35.2737 30.4864 35.274 30.8278C35.2742 31.0705 35.2241 31.3105 35.1269 31.5329C35.0296 31.7553 34.8873 31.9551 34.7089 32.1197C34.5306 32.2844 34.32 32.4103 34.0906 32.4895C33.8611 32.5688 33.6177 32.5997 33.3757 32.5802ZM22.9456 32.1905C23.0698 31.9419 23.1698 31.6821 23.2443 31.4145H23.6167C23.761 32.1164 24.1574 32.7413 24.731 33.1711C24.3638 33.3763 24.0266 33.631 23.7289 33.9282C23.6719 33.9852 23.6163 34.0438 23.562 34.1041L23.1974 33.7396C22.9978 33.5406 22.8661 33.2838 22.8209 33.0057C22.7757 32.7276 22.8193 32.4424 22.9456 32.1905ZM27.0726 43.8266V41.4783C27.9541 42.0183 28.9679 42.3041 30.0018 42.3041C31.0357 42.3041 32.0495 42.0183 32.9311 41.4783V43.8266H27.0726ZM30.0018 41.1327C29.0379 41.0748 28.1061 40.7647 27.2999 40.2333C26.4937 39.7019 25.8414 38.9681 25.4085 38.1053L26.1518 37.6097C26.2785 37.826 26.448 38.0142 26.65 38.1627C26.852 38.3112 27.0822 38.417 27.3265 38.4734C27.5709 38.5299 27.8241 38.5358 28.0708 38.491C28.3176 38.4461 28.5525 38.3513 28.7613 38.2125L29.6778 37.6055C29.7739 37.5411 29.8869 37.5067 30.0025 37.5067C30.1182 37.5067 30.2312 37.5411 30.3272 37.6055L31.2424 38.2146C31.4512 38.3536 31.6862 38.4484 31.933 38.4933C32.1798 38.5383 32.4331 38.5323 32.6775 38.4759C32.9219 38.4194 33.1522 38.3137 33.3543 38.1651C33.5563 38.0165 33.7259 37.8282 33.8525 37.6118L34.5959 38.1074C34.1629 38.9705 33.5105 39.7047 32.704 40.2362C31.8976 40.7677 30.9654 41.0779 30.0011 41.1355L30.0018 41.1327ZM35.8105 37.5087L33.8413 36.1979C33.7529 36.1386 33.6499 36.1046 33.5435 36.0994C33.4371 36.0943 33.3314 36.1182 33.2376 36.1687C33.1438 36.2192 33.0656 36.2943 33.0113 36.3859C32.9571 36.4775 32.9288 36.5821 32.9297 36.6886C32.9297 36.8095 32.8969 36.9282 32.8347 37.032C32.7725 37.1358 32.6833 37.2207 32.5766 37.2778C32.4699 37.3349 32.3498 37.3619 32.2289 37.356C32.108 37.3502 31.991 37.3116 31.8904 37.2445L30.9787 36.6353C30.6902 36.4424 30.351 36.3395 30.0039 36.3395C29.6569 36.3395 29.3176 36.4424 29.0292 36.6353L28.1133 37.2452C28.0127 37.3121 27.8957 37.3505 27.775 37.3563C27.6542 37.3621 27.5341 37.335 27.4276 37.278C27.321 37.2209 27.2319 37.136 27.1697 37.0324C27.1076 36.9287 27.0748 36.8101 27.0747 36.6893C27.0755 36.5828 27.0473 36.4782 26.993 36.3866C26.9388 36.295 26.8606 36.2199 26.7668 36.1694C26.673 36.1189 26.5672 36.095 26.4609 36.1001C26.3545 36.1053 26.2515 36.1393 26.1631 36.1986C24.0214 37.6258 24.1294 37.5809 23.9709 37.5809C23.9168 37.5812 23.8632 37.5708 23.8132 37.5502C23.7631 37.5297 23.7177 37.4995 23.6794 37.4613C23.6411 37.4231 23.6108 37.3777 23.5902 37.3277C23.5696 37.2778 23.559 37.2242 23.5592 37.1702C23.5596 36.3099 23.8848 35.4815 24.4699 34.8507C25.055 34.2198 25.8568 33.833 26.715 33.7676C27.2662 33.7279 27.8189 33.8194 28.3279 34.0347C28.5118 34.3099 28.7607 34.5354 29.0526 34.6914C29.3445 34.8474 29.6705 34.929 30.0015 34.929C30.3325 34.929 30.6584 34.8474 30.9503 34.6914C31.2423 34.5354 31.4912 34.3099 31.6751 34.0347C32.1841 33.8196 32.7368 33.7281 33.288 33.7676C34.1471 33.8318 34.9503 34.2182 35.5364 34.8493C36.1225 35.4805 36.4484 36.3097 36.4487 37.1709C36.4491 37.2452 36.4291 37.3183 36.3909 37.3821C36.3527 37.446 36.2977 37.4981 36.2319 37.533C36.1662 37.5678 36.0921 37.5839 36.0178 37.5796C35.9435 37.5754 35.8718 37.5508 35.8105 37.5087ZM43.8134 31.4103H42.0694C41.9598 31.4094 41.8522 31.4393 41.7587 31.4966C41.6653 31.5538 41.5898 31.6361 41.5409 31.7341C41.4919 31.8321 41.4715 31.9419 41.4818 32.0509C41.4922 32.16 41.533 32.264 41.5995 32.351L41.9081 32.7625C42.5652 33.6351 42.8795 34.7181 42.7917 35.8068L41.1577 34.9901C41.0575 34.9399 40.945 34.9195 40.8335 34.9313C40.722 34.9432 40.6163 34.9867 40.5288 35.0569C40.4414 35.127 40.376 35.2207 40.3402 35.3269C40.3045 35.4332 40.3001 35.5474 40.3274 35.6561C40.4859 36.2846 40.5057 36.9401 40.3853 37.5771C40.265 38.214 40.0073 38.8171 39.6303 39.3446L37.5651 37.562C37.5976 37.4339 37.6141 37.3023 37.6142 37.1702C37.614 36.5686 37.4949 35.9731 37.2635 35.4177C37.2173 35.3063 37.1661 35.1969 37.1107 35.089L37.6296 34.5703C38.0032 34.1976 38.2498 33.7168 38.3344 33.1961C38.419 32.6754 38.3373 32.1413 38.1009 31.6696C37.9207 31.3051 37.8097 30.9103 37.7734 30.5053C37.7734 30.4969 37.7734 30.4892 37.7734 30.4808C37.7734 30.4412 37.7694 30.4018 37.7614 30.363C37.7473 30.1181 37.7565 29.8723 37.7888 29.6291C37.914 28.6836 37.8359 27.7222 37.5598 26.8092C37.2836 25.8963 36.8158 25.0527 36.1875 24.3349C35.5591 23.6171 34.7848 23.0415 33.9162 22.6467C33.0476 22.2519 32.1047 22.0468 31.1505 22.0453H28.8574C27.9026 22.0455 26.9589 22.2494 26.0894 22.6435C25.2198 23.0375 24.4445 23.6126 23.8152 24.3303C23.1859 25.048 22.7172 25.8917 22.4403 26.805C22.1635 27.7183 22.085 28.6802 22.21 29.6263C22.3117 30.3228 22.2015 31.0338 21.8937 31.6668C21.6571 32.1386 21.5753 32.6728 21.6599 33.1937C21.7445 33.7145 21.9912 34.1955 22.3649 34.5682L22.8832 35.0862C22.5532 35.7311 22.3813 36.4451 22.3818 37.1695C22.3819 37.3016 22.3984 37.4332 22.4309 37.5613L20.3698 39.3439C19.9928 38.8165 19.7351 38.2133 19.6148 37.5764C19.4944 36.9394 19.5142 36.2839 19.6727 35.6554C19.7001 35.5467 19.6956 35.4325 19.6599 35.3262C19.6242 35.22 19.5587 35.1263 19.4713 35.0562C19.3839 34.986 19.2781 34.9425 19.1667 34.9306C19.0552 34.9188 18.9427 34.9392 18.8424 34.9894L17.2085 35.8061C17.1331 34.5421 17.5618 33.2998 18.4006 32.351C18.4659 32.264 18.5057 32.1605 18.5154 32.0522C18.5251 31.9439 18.5045 31.835 18.4558 31.7377C18.4071 31.6405 18.3322 31.5587 18.2396 31.5016C18.147 31.4445 18.0403 31.4144 17.9315 31.4145H16.1888C16.362 29.2134 17.9322 28.2538 18.3473 27.7295C18.4294 27.6476 18.4853 27.5433 18.508 27.4296C18.5306 27.316 18.519 27.1982 18.4746 27.0911C18.4302 26.9841 18.3551 26.8926 18.2586 26.8283C18.1622 26.764 18.0488 26.7297 17.9329 26.7299H16.3024C16.555 25.741 17.0528 24.8316 17.7499 24.0858C18.4469 23.3399 19.3207 22.7816 20.2906 22.4624L21.6335 22.0173C21.7436 21.9808 21.8403 21.9124 21.9115 21.8209C21.9826 21.7293 22.0249 21.6187 22.0331 21.5031C22.0413 21.3875 22.015 21.272 21.9574 21.1714C21.8999 21.0707 21.8138 20.9894 21.71 20.9378C20.9565 20.4589 20.1115 20.1421 19.2288 20.0076C20.4977 19.0514 22.0431 18.5333 23.6321 18.5313H23.7941C23.9261 18.5315 24.0543 18.4871 24.1578 18.4053C24.2614 18.3235 24.3343 18.2091 24.3646 18.0807C24.395 17.9523 24.3811 17.8174 24.3251 17.6979C24.2692 17.5785 24.1745 17.4814 24.0564 17.4224C23.6732 17.2213 23.3031 16.9961 22.9484 16.7481C22.8432 16.6775 22.7366 16.6074 22.6286 16.5378C23.8416 16.1419 25.143 16.1032 26.3774 16.4264C27.6118 16.7495 28.7271 17.4209 29.5902 18.3603C29.6446 18.4147 29.7091 18.4578 29.7802 18.4872C29.8512 18.5166 29.9274 18.5318 30.0043 18.5318C30.0812 18.5318 30.1573 18.5166 30.2284 18.4872C30.2995 18.4578 30.364 18.4147 30.4184 18.3603C31.5896 17.1272 33.1686 16.3608 34.8624 16.2034C35.7208 16.1278 36.5852 16.2528 37.387 16.5686C37.2804 16.635 37.1754 16.7011 37.0721 16.767C36.7096 17.0048 36.3351 17.2238 35.95 17.4231C35.832 17.4821 35.7373 17.5792 35.6813 17.6986C35.6254 17.8181 35.6115 17.953 35.6418 18.0814C35.6722 18.2098 35.7451 18.3242 35.8486 18.406C35.9522 18.4878 36.0803 18.5322 36.2123 18.532H36.3743C38.0523 18.5511 39.676 19.1288 40.9887 20.1737L40.6935 20.3216L38.4122 20.8915C38.2899 20.9227 38.1808 20.9925 38.1014 21.0906C38.022 21.1888 37.9765 21.3099 37.9716 21.4361C37.9667 21.5622 38.0027 21.6865 38.0743 21.7905C38.1459 21.8945 38.2492 21.9726 38.3687 22.0131L39.7117 22.4603C40.6825 22.7792 41.5571 23.3376 42.2548 24.0839C42.9525 24.8301 43.4507 25.7402 43.7033 26.7299H42.0701C41.9541 26.7297 41.8408 26.764 41.7443 26.8283C41.6479 26.8926 41.5727 26.9841 41.5283 27.0911C41.4839 27.1982 41.4724 27.316 41.495 27.4296C41.5177 27.5433 41.5736 27.6476 41.6556 27.7295L42.5112 28.5861C43.2664 29.3451 43.7279 30.3473 43.8134 31.4145V31.4103Z" fill="#1C1C22"/>
<path d="M27.6562 25.5619H32.3428C32.4982 25.5619 32.6473 25.5002 32.7572 25.3904C32.867 25.2806 32.9288 25.1316 32.9288 24.9763C32.9288 24.821 32.867 24.672 32.7572 24.5622C32.6473 24.4523 32.4982 24.3906 32.3428 24.3906H27.6562C27.5008 24.3906 27.3518 24.4523 27.2419 24.5622C27.132 24.672 27.0703 24.821 27.0703 24.9763C27.0703 25.1316 27.132 25.2806 27.2419 25.3904C27.3518 25.5002 27.5008 25.5619 27.6562 25.5619Z" fill="#3A4155"/>
</svg>
